<svg width="66" height="79" viewBox="0 0 66 79" fill="none" xmlns="http://www.w3.org/2000/svg">
<g clip-path="url(#clip0_2759_90)">
<path fill-rule="evenodd" clip-rule="evenodd" d="M65.012 24.629L65.0355 24.6485L64.6761 64.4925H49.8321C49.8165 63.9769 49.7969 63.2034 49.7735 62.055H62.2615L62.5857 25.836L37.2457 6.14503L15.1517 23.68V17.7308L37.1597 0.160828L65.0347 21.8168L65.012 24.629ZM29.403 33.8868C31.7468 34.1368 33.8483 32.4415 34.0983 30.0977C34.3483 27.7539 32.653 25.6524 30.3092 25.4024C27.9654 25.1524 25.8639 26.8477 25.6139 29.1915C25.3639 31.5353 27.0592 33.6368 29.403 33.8868ZM36.6374 52.8278L36.6218 42.4998C36.6179 38.8045 34.3288 35.4959 30.653 35.1014C26.9772 34.7069 23.2585 37.2108 23.0202 40.8983L22.8874 42.9569C21.8405 41.6092 20.6452 41.5155 18.9577 41.5194C18.9343 41.1874 18.8405 40.8631 18.6804 40.5858C18.2077 39.785 17.4734 39.3592 16.0476 39.3202L13.4538 39.285C13.8405 32.1952 12.9733 25.0861 7.29355 25.2071C4.14905 25.5781 2.32475 27.3438 1.81695 30.504C1.43414 31.6798 1.3482 33.1328 1.27398 34.3242C1.13335 36.707 1.55132 39.211 2.01617 41.8087C2.24273 43.0782 3.33257 44.0821 4.61777 43.9767C5.51621 43.9063 13.399 44.3868 17.1768 43.7579L19.2315 43.7657C21.1338 43.7735 22.0557 45.1563 22.712 47.461C23.4776 50.1524 23.6651 53.6368 23.5948 57.2657C26.5831 55.7462 30.0753 55.4845 33.2823 56.5665C38.9034 58.461 42.5518 64.1524 41.6768 70.2305C41.5791 70.8985 41.4307 71.5469 41.2393 72.1758H57.1843C57.7702 72.1758 58.2468 71.6992 58.2468 71.1133C58.2468 70.5273 57.7702 70.0508 57.1843 70.0508H52.3991C52.0944 67.1719 48.8874 66.8242 47.0241 66.7891C47.0241 66.7891 46.9811 66.1641 46.8991 61.8203C47.3835 55.9336 45.9225 52.9414 42.5085 52.8437C40.5476 52.8515 38.5944 52.8434 36.6374 52.8278ZM39.5397 69.9328C40.3561 64.257 36.4186 58.9918 30.7389 58.1748C25.0631 57.3584 19.7979 61.2959 18.9809 66.9756C18.1645 72.6514 22.102 77.9166 27.7817 78.7336C33.4575 79.55 38.7227 75.6086 39.5397 69.9328ZM30.2311 61.718C26.5123 61.1828 23.0631 63.7649 22.5241 67.4836C21.989 71.2024 24.571 74.6516 28.2897 75.1906C32.0085 75.7257 35.4577 73.1437 35.9967 69.425C36.5319 65.7023 33.9498 62.2531 30.2311 61.718ZM8.26613 14.413C10.8755 14.6903 12.7622 17.0302 12.4849 19.6396C12.2076 22.249 9.86773 24.1357 7.25833 23.8584C4.64893 23.5811 2.76223 21.2412 3.03953 18.6318C3.31687 16.0224 5.65673 14.1357 8.26613 14.413ZM12.6723 45.218C12.6137 45.7649 12.4653 46.0071 12.2778 46.1086L12.6723 45.218ZM7.65283 57.616L11.1645 77.093C11.3169 77.968 12.0981 78.5852 12.9848 78.5305C13.5317 78.4953 14.0043 78.468 14.4067 78.4446C15.3638 78.386 16.0942 77.5578 16.0356 76.6008L12.6723 45.218C8.96533 45.761 4.27783 45.7607 3.42233 45.831C3.04342 45.8623 2.68405 45.7959 2.35593 45.6553L0.961426 77.1433C0.988769 78.0768 1.7544 78.823 2.68803 78.8269L3.89503 78.8347C4.75441 78.8425 5.47703 78.2331 5.62163 77.3855C6.26225 73.6394 6.66853 63.07 7.65283 57.616Z" fill="#AB5D5B"/>
</g>
<defs>
<clipPath id="clip0_2759_90">
<rect width="66" height="79" fill="white"/>
</clipPath>
</defs>
</svg>
