<svg width="67" height="70" viewBox="0 0 67 70" fill="none" xmlns="http://www.w3.org/2000/svg">
<g clip-path="url(#clip0_2759_84)">
<path d="M23.4343 18.7212C24.8237 18.7212 26.1818 18.3075 27.337 17.5324C28.4922 16.7573 29.3926 15.6555 29.9243 14.3665C30.456 13.0774 30.5951 11.659 30.3241 10.2905C30.0531 8.92209 29.3841 7.66506 28.4017 6.67844C27.4194 5.69182 26.1677 5.01992 24.8051 4.7477C23.4425 4.47547 22.0301 4.61516 20.7465 5.14909C19.463 5.68303 18.3659 6.58722 17.594 7.74734C16.8221 8.90746 16.4102 10.2714 16.4102 11.6667C16.4123 13.5369 17.153 15.33 18.4698 16.6525C19.7866 17.9751 21.572 18.719 23.4343 18.7212Z" fill="#AB5D5B"/>
<path d="M16.2097 43.1395C15.6753 43.1395 15.153 43.2987 14.7087 43.5968C14.2645 43.8949 13.9182 44.3186 13.7137 44.8144C13.5092 45.3102 13.4557 45.8557 13.56 46.382C13.6642 46.9083 13.9215 47.3918 14.2993 47.7712C14.6772 48.1507 15.1586 48.4091 15.6826 48.5137C16.2067 48.6184 16.7499 48.5647 17.2435 48.3594C17.7372 48.154 18.1591 47.8062 18.456 47.3601C18.7528 46.9139 18.9113 46.3893 18.9113 45.8527C18.911 45.1332 18.6263 44.4432 18.1197 43.9345C17.6131 43.4257 16.9261 43.1398 16.2097 43.1395Z" fill="#AB5D5B"/>
<path d="M66.6326 64.2535L58.0685 45.0713C57.6729 43.5147 56.7159 42.1611 55.3831 41.2729C55.7629 40.6988 55.952 40.0188 55.9234 39.3302L55.8045 37.4853C55.7522 36.693 55.4128 35.9475 54.8502 35.3896C54.2877 34.8316 53.5412 34.5 52.7517 34.4574H41.2915L36.9257 21.8248C36.4729 20.5436 35.6966 19.4024 34.6727 18.513C33.6488 17.6236 32.4125 17.0165 31.0848 16.7512C30.599 17.4908 30.0093 18.156 29.3341 18.7264C30.5395 18.6992 31.723 19.0521 32.7183 19.7354C33.7136 20.4186 34.4708 21.3979 34.8832 22.5357L39.0005 34.4574H36.9203L35.3101 30.5829C35.199 30.3174 34.9875 30.1071 34.722 29.9982C34.5906 29.9443 34.4498 29.9169 34.3078 29.9176C34.1658 29.9183 34.0254 29.9471 33.8945 30.0023C33.7635 30.0576 33.6447 30.1381 33.5448 30.2395C33.4449 30.3408 33.3659 30.4609 33.3122 30.5929C33.2038 30.8596 33.2053 31.1585 33.3163 31.424L35.2074 35.9605C35.2888 36.158 35.4267 36.3269 35.6037 36.4457C35.7806 36.5645 35.9888 36.6279 36.2016 36.6279H52.7409C52.9786 36.671 53.1958 36.7907 53.3596 36.9689C53.5234 37.1471 53.6249 37.3741 53.6487 37.6155L53.7621 39.4659C53.7837 39.8186 53.5082 40.4264 53.0921 40.4264H32.6409L27.7294 29.6659C27.61 29.4046 27.3924 29.2016 27.1241 29.1013C26.8559 29.001 26.559 29.0116 26.2985 29.1309C26.0381 29.2502 25.8354 29.4683 25.7349 29.7375C25.6345 30.0067 25.6444 30.3049 25.7626 30.5667L30.2635 40.4264H24.7414L19.7326 25.8295C19.7427 25.007 19.9347 24.197 20.2945 23.4581C20.841 22.3471 21.7245 21.4389 22.8178 20.8643C21.861 20.8013 20.9201 20.5871 20.0298 20.2295C19.4151 20.8144 18.8971 21.494 18.4953 22.2426L12.6166 5.12249C12.1815 3.7127 11.3072 2.48044 10.1225 1.60712C8.93771 0.733791 7.50506 0.265549 6.03543 0.271324C5.92736 0.271324 1.09147 0.27675 1.08067 0.27675C0.925668 0.278893 0.772889 0.314064 0.632436 0.379935C0.491984 0.445807 0.367058 0.540878 0.265925 0.658859C0.164791 0.77684 0.0897547 0.915042 0.0457788 1.06432C0.0018028 1.2136 -0.0101101 1.37056 0.0108281 1.52481C0.718651 6.22946 7.06204 48.2457 7.13228 48.4954C7.43746 50.4702 8.43246 52.2715 9.93921 53.5769C11.446 54.8823 13.3661 55.6066 15.356 55.6202L16.2097 55.6256V68.6434C16.2097 68.9312 16.3236 69.2073 16.5262 69.4108C16.7289 69.6143 17.0037 69.7287 17.2903 69.7287C17.5769 69.7287 17.8518 69.6143 18.0545 69.4108C18.2571 69.2073 18.371 68.9312 18.371 68.6434V55.5062C19.2262 55.3908 20.0375 55.0563 20.7268 54.5349H23.7742V68.6434C23.7742 68.9312 23.8881 69.2073 24.0907 69.4108C24.2934 69.6143 24.5683 69.7287 24.8549 69.7287C25.1415 69.7287 25.4163 69.6143 25.619 69.4108C25.8217 69.2073 25.9355 68.9312 25.9355 68.6434V62.1318H46.4678V68.6434C46.4678 68.9312 46.5816 69.2073 46.7843 69.4108C46.9869 69.6143 47.2618 69.7287 47.5484 69.7287C47.835 69.7287 48.1099 69.6143 48.3125 69.4108C48.5152 69.2073 48.6291 68.9312 48.6291 68.6434V54.5349H54.0323V68.6434C54.0323 68.9312 54.1461 69.2073 54.3488 69.4108C54.5515 69.6143 54.8263 69.7287 55.1129 69.7287C55.3995 69.7287 55.6744 69.6143 55.8771 69.4108C56.0797 69.2073 56.1936 68.9312 56.1936 68.6434V62.0124L58.8628 67.7915C59.0463 68.1982 59.3107 68.5629 59.6396 68.8634C59.9685 69.1638 60.355 69.3937 60.7755 69.5388C61.6239 69.8335 62.5537 69.7809 63.3637 69.3922C63.3637 69.3922 65.2494 68.6868 65.2872 68.6705C66.8866 67.862 67.4377 66.0496 66.6326 64.2535ZM4.98692 2.90289C4.92183 2.87605 4.86018 2.84145 4.8033 2.79983C4.74477 2.76249 4.69045 2.71886 4.64131 2.66973C4.5403 2.56867 4.46014 2.44857 4.40545 2.31633C4.35076 2.18408 4.32261 2.04229 4.32261 1.8991C4.32261 1.7559 4.35076 1.61411 4.40545 1.48187C4.46014 1.34962 4.5403 1.22953 4.64131 1.12847C4.69045 1.07933 4.74477 1.03571 4.8033 0.998368C4.86018 0.956749 4.92183 0.922144 4.98692 0.8953C5.05271 0.867207 5.12163 0.847183 5.19219 0.835665C5.34015 0.805925 5.49267 0.807644 5.63993 0.840711C5.78719 0.873778 5.92592 0.93746 6.04718 1.02765C6.16844 1.11785 6.26954 1.23255 6.34397 1.36437C6.4184 1.4962 6.46451 1.64222 6.47932 1.79303C6.49414 1.94384 6.47733 2.09609 6.42998 2.23998C6.38263 2.38387 6.30579 2.5162 6.20441 2.62845C6.10304 2.7407 5.97937 2.83037 5.84138 2.8917C5.70339 2.95302 5.55414 2.98464 5.40325 2.9845C5.33231 2.98526 5.2615 2.97798 5.19219 2.9628C5.12178 2.95047 5.05294 2.93038 4.98692 2.90289ZM5.29507 6.21303C5.24697 6.00373 5.26175 5.78481 5.33753 5.58395C5.41332 5.38309 5.54671 5.20931 5.72084 5.08458C5.89496 4.95985 6.10201 4.88978 6.31579 4.88323C6.52957 4.87667 6.74049 4.93393 6.92187 5.04776C7.10325 5.16159 7.24695 5.32688 7.33479 5.52272C7.42263 5.71857 7.45068 5.93618 7.41537 6.14803C7.38007 6.35988 7.28301 6.55646 7.13646 6.71291C6.98991 6.86936 6.80046 6.97866 6.59206 7.02698C6.51208 7.04414 6.43059 7.05328 6.34881 7.05427C6.10441 7.05407 5.86726 6.97083 5.67595 6.81809C5.48463 6.66535 5.35039 6.4521 5.29507 6.21303ZM6.24064 10.2828C6.19254 10.0735 6.20731 9.85458 6.2831 9.65372C6.35888 9.45286 6.49227 9.27907 6.6664 9.15435C6.84053 9.02962 7.04758 8.95955 7.26136 8.95299C7.47514 8.94644 7.68606 9.0037 7.86744 9.11753C8.04882 9.23136 8.19251 9.39664 8.28035 9.59249C8.3682 9.78834 8.39624 10.0059 8.36094 10.2178C8.32564 10.4296 8.22857 10.6262 8.08202 10.7827C7.93548 10.9391 7.74602 11.0484 7.53762 11.0967C7.45764 11.1139 7.37616 11.123 7.29438 11.124C7.04997 11.1238 6.81283 11.0406 6.62151 10.8879C6.43019 10.7351 6.29596 10.5219 6.24064 10.2828ZM7.1862 14.3526C7.1381 14.1433 7.15288 13.9243 7.22866 13.7235C7.30445 13.5226 7.43784 13.3488 7.61196 13.2241C7.78609 13.0994 7.99314 13.0293 8.20692 13.0228C8.4207 13.0162 8.63162 13.0735 8.813 13.1873C8.99438 13.3011 9.13808 13.4664 9.22592 13.6623C9.31376 13.8581 9.3418 14.0757 9.3065 14.2876C9.2712 14.4994 9.17414 14.696 9.02759 14.8524C8.88104 15.0089 8.69159 15.1182 8.48319 15.1665C8.40321 15.1837 8.32172 15.1928 8.23994 15.1938C7.99554 15.1936 7.75839 15.1104 7.56708 14.9576C7.37576 14.8049 7.24152 14.5916 7.1862 14.3526ZM9.94744 18.9433C9.84819 19.0451 9.72963 19.1259 9.59876 19.1809C9.4679 19.2359 9.32738 19.264 9.18551 19.2636C9.11456 19.2643 9.04376 19.257 8.97445 19.2419C8.90388 19.2303 8.83496 19.2102 8.76919 19.182C8.70511 19.1531 8.64367 19.1186 8.58556 19.0789C8.52564 19.0414 8.47113 18.9957 8.42358 18.9433C8.37143 18.8954 8.32599 18.8407 8.2885 18.7806C8.24716 18.7233 8.21263 18.6614 8.1856 18.5962C8.15841 18.5298 8.13859 18.4605 8.12651 18.3898C8.11122 18.3203 8.10396 18.2494 8.10486 18.1783C8.10443 18.0358 8.13241 17.8947 8.18715 17.7633C8.24189 17.6319 8.32227 17.5128 8.42356 17.4131C8.47112 17.3606 8.52562 17.315 8.58555 17.2774C8.64372 17.2379 8.70515 17.2034 8.76918 17.1744C8.83579 17.1487 8.90446 17.1287 8.97443 17.1148C9.14854 17.0801 9.32846 17.0893 9.49821 17.1413C9.66796 17.1934 9.82227 17.2867 9.94744 17.4131C9.99958 17.4609 10.045 17.5157 10.0825 17.5758C10.1217 17.6343 10.156 17.6961 10.1849 17.7605C10.212 17.8268 10.232 17.8959 10.2445 17.9666C10.2598 18.0361 10.2671 18.1071 10.2662 18.1783C10.2666 18.3207 10.2386 18.4618 10.1839 18.5931C10.1291 18.7245 10.0487 18.8436 9.94744 18.9433ZM16.2097 50.7364C15.2479 50.7364 14.3077 50.45 13.508 49.9134C12.7083 49.3767 12.085 48.614 11.717 47.7216C11.3489 46.8293 11.2526 45.8473 11.4402 44.8999C11.6279 43.9526 12.091 43.0824 12.7711 42.3994C13.4512 41.7164 14.3177 41.2513 15.261 41.0628C16.2043 40.8744 17.1821 40.9711 18.0707 41.3407C18.9592 41.7104 19.7187 42.3363 20.2531 43.1395C20.7874 43.9426 21.0726 44.8868 21.0726 45.8527C21.0707 47.1474 20.5577 48.3884 19.6462 49.3039C18.7346 50.2193 17.4988 50.7345 16.2097 50.7364ZM46.4699 59.9612H25.936V54.5349H46.4699V59.9612ZM49.1694 48.5659C48.8828 48.5659 48.6079 48.4516 48.4052 48.248C48.2026 48.0445 48.0887 47.7685 48.0887 47.4806C48.0887 47.1928 48.2026 46.9167 48.4052 46.7132C48.6079 46.5097 48.8828 46.3954 49.1694 46.3954H56.7339C57.0205 46.3954 57.2954 46.5097 57.498 46.7132C57.7007 46.9167 57.8145 47.1928 57.8145 47.4806C57.8145 47.7685 57.7007 48.0445 57.498 48.248C57.2954 48.4516 57.0205 48.5659 56.7339 48.5659H49.1694ZM64.3638 66.7044C64.3638 66.7044 62.4885 67.4021 62.4532 67.4198C62.3115 67.4942 62.1564 67.5393 61.997 67.5524C61.8376 67.5655 61.6772 67.5464 61.5254 67.4961C61.3735 67.4459 61.2332 67.3656 61.1128 67.2599C60.9923 67.1542 60.8943 67.0254 60.8243 66.881L56.1962 56.8461V54.5349H57.2769C57.4188 54.5349 57.5593 54.5069 57.6905 54.4524C57.8216 54.3979 57.9408 54.3179 58.0411 54.2172C58.1415 54.1164 58.2211 53.9967 58.2754 53.865C58.3297 53.7333 58.3576 53.5922 58.3575 53.4496V51.0239L64.6614 65.1444C64.8514 65.5651 65.0577 66.3195 64.3638 66.7044Z" fill="#AB5D5B"/>
</g>
<defs>
<clipPath id="clip0_2759_84">
<rect width="67" height="70" fill="white"/>
</clipPath>
</defs>
</svg>
