<svg width="58" height="60" viewBox="0 0 58 60" fill="none" xmlns="http://www.w3.org/2000/svg">
<g clip-path="url(#clip0_2759_100)">
<path d="M58 0H54V4H58V0Z" fill="#AB5D5B"/>
<path d="M48 1H44V5H48V1Z" fill="#AB5D5B"/>
<path d="M57 11H52V16H57V11Z" fill="#AB5D5B"/>
<path d="M50 22H44V28H50V22Z" fill="#AB5D5B"/>
<path d="M47 10H41V16H47V10Z" fill="#AB5D5B"/>
<path d="M36 5H30V11H36V5Z" fill="#AB5D5B"/>
<path d="M6.19 47.73C6.19 49.2 7.38 50.38 8.85 50.38H18.57V52.38H14.15V60H36.24C36.22 57.98 36.37 53.16 37.88 47.7C38.83 44.27 40.52 41.1 42.54 38.16C43.42 36.87 44.15 35.48 44.7 34H39V26H31V18H24V7.15C14.14 8.18 6.42 16.42 6.2 26.5H6.19L0 37.12H6.19V47.73Z" fill="#AB5D5B"/>
</g>
<defs>
<clipPath id="clip0_2759_100">
<rect width="58" height="60" fill="white"/>
</clipPath>
</defs>
</svg>
